<?xml version="1.0" standalone="no"?>
<!DOCTYPE svg PUBLIC "-//W3C//DTD SVG 20010904//EN"
 "http://www.w3.org/TR/2001/REC-SVG-20010904/DTD/svg10.dtd">
<svg version="1.0" xmlns="http://www.w3.org/2000/svg"
 width="200.000000pt" height="200.000000pt" viewBox="0 0 200.000000 200.000000"
 preserveAspectRatio="xMidYMid meet">

<g transform="translate(0.000000,200.000000) scale(0.100000,-0.100000)"
fill="#000000" stroke="none">
<path d="M661 1182 c-11 -27 -9 -31 28 -68 68 -69 68 -159 0 -228 -37 -37 -39
-41 -28 -68 14 -35 42 -34 47 2 5 34 22 52 43 47 28 -7 46 20 30 44 -15 26 -6
55 19 62 12 3 20 14 20 27 0 13 -8 24 -20 27 -25 7 -34 36 -19 62 16 24 -2 51
-30 44 -21 -5 -38 13 -43 47 -5 36 -33 37 -47 2z"/>
<path d="M1420 1096 c0 -80 1 -86 20 -86 20 0 21 5 18 82 -3 70 -6 83 -20 86
-16 3 -18 -6 -18 -82z"/>
<path d="M1617 1173 c-4 -3 -7 -41 -7 -84 l0 -78 43 1 c65 0 94 38 67 89 -7
12 -21 19 -40 19 -27 0 -30 3 -30 30 0 28 -17 40 -33 23z m73 -103 c0 -5 -5
-12 -11 -16 -14 -8 -33 11 -25 25 7 11 36 4 36 -9z"/>
<path d="M910 1090 c0 -73 2 -80 20 -80 18 0 20 7 20 80 0 73 -2 80 -20 80
-18 0 -20 -7 -20 -80z"/>
<path d="M1340 1145 c0 -24 -3 -25 -61 -25 l-60 0 3 -52 c3 -46 6 -53 26 -56
19 -3 22 1 22 31 0 25 6 39 23 50 29 19 47 2 47 -48 0 -28 4 -35 20 -35 17 0
20 7 20 40 0 22 5 40 10 40 6 0 10 7 10 15 0 8 -4 15 -10 15 -5 0 -10 11 -10
25 0 18 -5 25 -20 25 -15 0 -20 -7 -20 -25z"/>
<path d="M1129 1116 c-30 -15 -37 -60 -13 -87 28 -32 91 -20 78 14 -3 10 -1
17 5 17 15 0 14 35 -1 47 -24 18 -45 21 -69 9z m36 -26 c3 -5 -1 -10 -10 -10
-9 0 -13 5 -10 10 3 6 8 10 10 10 2 0 7 -4 10 -10z m10 -40 c3 -5 -3 -10 -14
-10 -12 0 -21 5 -21 10 0 6 6 10 14 10 8 0 18 -4 21 -10z"/>
<path d="M972 1068 c3 -45 6 -53 23 -53 16 0 21 8 23 38 4 50 22 48 22 -3 0
-34 3 -40 21 -40 18 0 20 5 17 53 l-3 52 -53 3 -53 3 3 -53z"/>
<path d="M1479 1093 c-8 -21 -7 -34 3 -53 11 -21 22 -25 61 -27 l47 -2 0 54 0
55 -50 0 c-46 0 -51 -3 -61 -27z m71 -29 c0 -8 -7 -14 -15 -14 -15 0 -21 21
-9 33 10 9 24 -2 24 -19z"/>
<path d="M570 1083 c-93 -35 -72 -167 27 -167 43 0 83 40 83 84 0 52 -65 100
-110 83z"/>
</g>
</svg>
